<svg xmlns="http://www.w3.org/2000/svg" viewBox="98.361 -135.804 528.01 528.01" role="img" aria-labelledby="avatar-title">
  <title id="avatar-title">unstrungApp: an unstrung archtop guitar lying on a table beside a pair of sunglasses</title>
  <!-- Generated by scripts/build-banner.mjs. Edit that, not this. -->
  <defs>
    <linearGradient id="wall" x1="0" y1="0" x2="0" y2="1">
      <stop offset="0" stop-color="#15191d"/>
      <stop offset="1" stop-color="#232a30"/>
    </linearGradient>
    <radialGradient id="finish" gradientUnits="userSpaceOnUse" cx="9.5" cy="0.4" r="11.5">
      <stop offset="0" stop-color="#e3a549"/>
      <stop offset="0.5" stop-color="#c47a28"/>
      <stop offset="0.8" stop-color="#7d3d15"/>
      <stop offset="1" stop-color="#3c1b0a"/>
    </radialGradient>
    <linearGradient id="lens" x1="0" y1="0" x2="0" y2="1">
      <stop offset="0" stop-color="#101820"/>
      <stop offset="1" stop-color="#34495c"/>
    </linearGradient>
    <filter id="soft" x="-20%" y="-200%" width="140%" height="500%">
      <feGaussianBlur stdDeviation="4"/>
    </filter>
  </defs>
  <rect x="88.361" y="-145.804" width="548.01" height="331.804" fill="url(#wall)"/>
  <rect x="88.361" y="186" width="548.01" height="80.402" fill="#7a5433"/>
  <path d="M -4000 198.6 L 0 198.6 C 300 195.6, 700 202.6, 1200 197.6 L 5200 197.6" fill="none" stroke="#5e3f24" stroke-width="1.2" opacity="0.6"/><path d="M -4000 209.1 L 0 209.1 C 300 206.1, 700 213.1, 1200 208.1 L 5200 208.1" fill="none" stroke="#5e3f24" stroke-width="1.2" opacity="0.6"/><path d="M -4000 219.6 L 0 219.6 C 300 216.6, 700 223.6, 1200 218.6 L 5200 218.6" fill="none" stroke="#5e3f24" stroke-width="1.2" opacity="0.6"/>
  <rect x="88.361" y="266.402" width="548.01" height="135.804" fill="#4f341d"/>
  <ellipse cx="248.161" cy="207.402" rx="150" ry="6" fill="#000" opacity="0.35" filter="url(#soft)"/>
  <ellipse cx="561.215" cy="207.402" rx="45" ry="4" fill="#000" opacity="0.35" filter="url(#soft)"/>
  
  <g id="guitar" transform="translate(125.401 97.651) rotate(9.63) scale(11.5)">
    <path id="guitar-body" d="M 0 0 C 0 -5, 2.5 -8.5, 6 -8.5 C 9.4 -8.5, 10.8 -5.3, 12.6 -5.3 C 14.4 -5.3, 15.8 -6.4, 17.4 -6.4 C 19.8 -6.4, 21.5 -4, 21.5 -1.12 L 21.5 1.12 C 21.7 2.1, 20.9 2.6, 20.2 2.45 C 18.8 2.1, 17.2 2.8, 16.4 4.3 C 15.8 5.4, 14.4 5.3, 12.6 5.3 C 10.8 5.3, 9.4 8.5, 6 8.5 C 2.5 8.5, 0 5, 0 0 Z" fill="url(#finish)" stroke="#efe3c4" stroke-width="0.16"/>
    <path d="M 7.9 4.55 C 9.8 4.95, 11.6 2.95, 13.3 3.35" fill="none" stroke="#1c1512" stroke-width="0.32" stroke-linecap="round"/><circle cx="7.9" cy="4.55" r="0.38" fill="#1c1512"/><circle cx="13.3" cy="3.35" r="0.38" fill="#1c1512"/><line x1="10.55" y1="3.55" x2="10.55" y2="4.45" stroke="#1c1512" stroke-width="0.09"/><path d="M 7.9 -4.55 C 9.8 -4.95, 11.6 -2.95, 13.3 -3.35" fill="none" stroke="#1c1512" stroke-width="0.32" stroke-linecap="round"/><circle cx="7.9" cy="-4.55" r="0.38" fill="#1c1512"/><circle cx="13.3" cy="-3.35" r="0.38" fill="#1c1512"/><line x1="10.55" y1="-3.55" x2="10.55" y2="-4.45" stroke="#1c1512" stroke-width="0.09"/>
    <path id="tailpiece" d="M 0.4 -0.85 L 5 -1.3 Q 5.5 -1.3 5.5 -0.8 L 5.5 0.8 Q 5.5 1.3 5 1.3 L 0.4 0.85 Q 0.15 0.85 0.15 0.5 L 0.15 -0.5 Q 0.15 -0.85 0.4 -0.85 Z" fill="#1c1512" stroke="#3a2a20" stroke-width="0.06"/>
    <circle cx="-0.05" cy="0" r="0.2" fill="#efe3c4"/>
    <g id="bridge">
      <rect x="10.094" y="-2.7" width="0.54" height="5.4" rx="0.18" fill="#1c1512" stroke="#3a2a20" stroke-width="0.06"/>
      <rect x="10.274" y="-1.45" width="0.18" height="2.9" rx="0.06" fill="#2e2019"/>
      <circle cx="10.364" cy="-1.85" r="0.2" fill="#d4af37"/>
      <circle cx="10.364" cy="1.85" r="0.2" fill="#d4af37"/>
    </g>
    <path id="pickguard" d="M 18.1 1.5 C 17 1.6, 14.6 2.0, 13.4 3.0 C 12.8 3.6, 13.3 4.3, 14.3 4.2 C 15.7 4.0, 17.1 3.2, 18.1 2.2 Z" fill="#4a2310" stroke="#efe3c4" stroke-width="0.07"/>
    <path id="fretboard" d="M 18.238 -1.13 L 35.364 -0.86 L 35.364 0.86 L 18.238 1.13 Z" fill="#1c1512" stroke="#efe3c4" stroke-width="0.07"/>
    <g stroke="#c9c9c9" stroke-width="0.07"><line x1="33.961" y1="-0.842" x2="33.961" y2="0.842"/><line x1="32.636" y1="-0.863" x2="32.636" y2="0.863"/><line x1="31.386" y1="-0.883" x2="31.386" y2="0.883"/><line x1="30.206" y1="-0.901" x2="30.206" y2="0.901"/><line x1="29.093" y1="-0.919" x2="29.093" y2="0.919"/><line x1="28.041" y1="-0.935" x2="28.041" y2="0.935"/><line x1="27.049" y1="-0.951" x2="27.049" y2="0.951"/><line x1="26.113" y1="-0.966" x2="26.113" y2="0.966"/><line x1="25.229" y1="-0.98" x2="25.229" y2="0.98"/><line x1="24.395" y1="-0.993" x2="24.395" y2="0.993"/><line x1="23.607" y1="-1.005" x2="23.607" y2="1.005"/><line x1="22.864" y1="-1.017" x2="22.864" y2="1.017"/><line x1="22.162" y1="-1.028" x2="22.162" y2="1.028"/><line x1="21.5" y1="-1.039" x2="21.5" y2="1.039"/><line x1="20.875" y1="-1.048" x2="20.875" y2="1.048"/><line x1="20.285" y1="-1.058" x2="20.285" y2="1.058"/><line x1="19.728" y1="-1.067" x2="19.728" y2="1.067"/><line x1="19.203" y1="-1.075" x2="19.203" y2="1.075"/><line x1="18.707" y1="-1.083" x2="18.707" y2="1.083"/><line x1="18.238" y1="-1.09" x2="18.238" y2="1.09"/></g>
    <g fill="#efe8da"><circle cx="32.011" cy="0" r="0.13"/><circle cx="29.649" cy="0" r="0.13"/><circle cx="27.545" cy="0" r="0.13"/><circle cx="25.671" cy="0" r="0.13"/><circle cx="23.235" cy="-0.45" r="0.13"/><circle cx="23.235" cy="0.45" r="0.13"/><circle cx="21.187" cy="0" r="0.13"/><circle cx="20.007" cy="0" r="0.13"/></g>
    <rect id="pickup" x="16.488" y="-1.3" width="1.5" height="2.6" rx="0.15" fill="#121212" stroke="#3a3a3a" stroke-width="0.06"/>
    <path id="headstock" d="M 35.364 -0.86 C 36.5 -0.95, 37.5 -1.5, 38.5 -1.6 L 41.2 -1.75 C 41.9 -1.78, 42.2 -1.2, 41.9 -0.7 C 41.7 -0.3, 41.7 0.3, 41.9 0.7 C 42.2 1.2, 41.9 1.78, 41.2 1.75 L 38.5 1.6 C 37.5 1.5, 36.5 0.95, 35.364 0.86 Z" fill="#1c1512" stroke="#efe3c4" stroke-width="0.07"/>
    <rect id="nut" x="35.264" y="-0.86" width="0.2" height="1.72" fill="#efe8da"/>
    <rect x="37.209999999999994" y="-2.05" width="0.18" height="0.646" fill="#d4af37"/><ellipse cx="37.3" cy="-2.3" rx="0.32" ry="0.42" fill="#d4af37" stroke="#9c7c1c" stroke-width="0.05"/><circle cx="37.3" cy="-1.05" r="0.17" fill="#d4af37"/><rect x="37.209999999999994" y="1.4039999999999995" width="0.18" height="0.646" fill="#d4af37"/><ellipse cx="37.3" cy="2.3" rx="0.32" ry="0.42" fill="#d4af37" stroke="#9c7c1c" stroke-width="0.05"/><circle cx="37.3" cy="1.05" r="0.17" fill="#d4af37"/><rect x="38.809999999999995" y="-2.05" width="0.18" height="0.43" fill="#d4af37"/><ellipse cx="38.9" cy="-2.3" rx="0.32" ry="0.42" fill="#d4af37" stroke="#9c7c1c" stroke-width="0.05"/><circle cx="38.9" cy="-1.05" r="0.17" fill="#d4af37"/><rect x="38.809999999999995" y="1.62" width="0.18" height="0.43" fill="#d4af37"/><ellipse cx="38.9" cy="2.3" rx="0.32" ry="0.42" fill="#d4af37" stroke="#9c7c1c" stroke-width="0.05"/><circle cx="38.9" cy="1.05" r="0.17" fill="#d4af37"/><rect x="40.41" y="-2.05" width="0.18" height="0.43" fill="#d4af37"/><ellipse cx="40.5" cy="-2.3" rx="0.32" ry="0.42" fill="#d4af37" stroke="#9c7c1c" stroke-width="0.05"/><circle cx="40.5" cy="-1.05" r="0.17" fill="#d4af37"/><rect x="40.41" y="1.62" width="0.18" height="0.43" fill="#d4af37"/><ellipse cx="40.5" cy="2.3" rx="0.32" ry="0.42" fill="#d4af37" stroke="#9c7c1c" stroke-width="0.05"/><circle cx="40.5" cy="1.05" r="0.17" fill="#d4af37"/>
  </g>
  <ellipse cx="386.174" cy="246.402" rx="81.6" ry="4" fill="#000" opacity="0.4" filter="url(#soft)"/>
  <g id="sunglasses" transform="translate(386.174 244.402) scale(1.02)">
    <g><path d="M 6 -50 L 72 -58 Q 77 -58 76 -52 L 69 -15 Q 65 -2 50 -2 L 22 -2 Q 8 -2 6 -14 Z" fill="#0e0e0e"/><path d="M 12 -45 L 68 -52 L 63 -17 Q 60 -8 48 -8 L 24 -8 Q 14 -8 12 -18 Z" fill="url(#lens)"/><path d="M 20 -40 L 34 -46 L 26 -20 Z" fill="#fff" opacity="0.12"/><circle cx="70" cy="-52" r="1.8" fill="#9aa3ab"/></g>
    <g transform="scale(-1 1)"><path d="M 6 -50 L 72 -58 Q 77 -58 76 -52 L 69 -15 Q 65 -2 50 -2 L 22 -2 Q 8 -2 6 -14 Z" fill="#0e0e0e"/><path d="M 12 -45 L 68 -52 L 63 -17 Q 60 -8 48 -8 L 24 -8 Q 14 -8 12 -18 Z" fill="url(#lens)"/><path d="M 20 -40 L 34 -46 L 26 -20 Z" fill="#fff" opacity="0.12"/><circle cx="70" cy="-52" r="1.8" fill="#9aa3ab"/></g>
    <path d="M -7 -50 Q 0 -57 7 -50 L 7 -41 Q 0 -47 -7 -41 Z" fill="#0e0e0e"/>
  </g>
</svg>
